Coordinates
version=1
nRows=10
nColumns=40
inDegrees=yes

Units are S.I. units (second, meters, Newtons, ...)
Angles are in degrees.

endheader
time	pelvis_tilt	pelvis_list	pelvis_rotation	pelvis_tx	pelvis_ty	pelvis_tz	hip_flexion_r	hip_adduction_r	hip_rotation_r	knee_angle_r	knee_angle_r_beta	ankle_angle_r	subtalar_angle_r	mtp_angle_r	hip_flexion_l	hip_adduction_l	hip_rotation_l	knee_angle_l	knee_angle_l_beta	ankle_angle_l	subtalar_angle_l	mtp_angle_l	lumbar_extension	lumbar_bending	lumbar_rotation	arm_flex_r	arm_add_r	arm_rot_r	elbow_flex_r	pro_sup_r	wrist_flex_r	wrist_dev_r	arm_flex_l	arm_add_l	arm_rot_l	elbow_flex_l	pro_sup_l	wrist_flex_l	wrist_dev_l
     20.79142857	     -5.39692558	     -6.21358273	      4.66934448	      1.12351489	      0.91133035	      0.47384526	     -4.32725914	      5.53792492	    -19.57191534	      8.12839287	      8.12839287	     18.84181958	      4.78382592	     -1.48447644	     35.04918015	     -7.37722514	     -1.73412632	     18.55119565	     18.55119565	      3.39493258	     -9.52487836	      8.98700492	     -7.18804800	      5.60082901	      3.90116392	     57.72072803	    -15.70213281	     -4.33169824	     91.73875213	     44.48403323	      0.00000000	      0.00000000	    -22.34874596	     -6.70124427	      4.78093651	     22.95868424	     45.00017748	      0.00000000	      0.00000000
     20.80285714	     -5.43511887	     -6.13968287	      4.28329365	      1.12452875	      0.90989759	      0.47224874	     -4.63758555	      5.17689844	    -19.11473643	      8.93682508	      8.93682508	     19.72852212	      4.64577648	     -0.45216895	     34.64378458	     -7.29066969	     -1.89583403	     19.13287637	     19.13287637	      1.50025603	    -10.88896213	      6.32271307	     -7.08351837	      5.53361715	      3.98753917	     58.14252066	    -15.33296591	     -4.27402599	     93.27008689	     44.50023495	      0.00000000	      0.00000000	    -23.03235229	     -6.51609928	      5.47613273	     22.52727445	     44.92241448	      0.00000000	      0.00000000
     20.81428571	     -5.48058360	     -5.99928984	      3.91137734	      1.12544889	      0.90863840	      0.47052911	     -4.86019418	      4.70864502	    -18.66986141	      9.84709743	      9.84709743	     20.19257714	      4.34542430	     -0.55430852	     34.45924493	     -7.17887318	     -2.05186934	     20.17945401	     20.17945401	      0.79097779	    -11.73675754	      6.10839945	     -6.97088461	      5.37574650	      3.76368938	     58.48471945	    -14.67347890	     -4.06483719	     94.38786678	     44.47034181	      0.00000000	      0.00000000	    -23.67239640	     -6.21535932	      5.63573323	     22.16756185	     44.89432773	      0.00000000	      0.00000000
     20.82571429	     -5.46532900	     -5.80822183	      3.56362221	      1.12633355	      0.90772697	      0.46865696	     -5.08439319	      4.16275748	    -18.18189080	     10.86775965	     10.86775965	     20.61319525	      3.93757455	     -0.65735322	     34.23423213	     -7.01477230	     -2.07963273	     21.25933770	     21.25933770	      0.18032143	    -12.58882865	      5.79746694	     -6.95299712	      5.16302390	      3.57569665	     58.53805783	    -14.14938499	     -3.89616665	     95.54029291	     44.43782830	      0.00000000	      0.00000000	    -24.06421588	     -5.95472663	      5.76875919	     21.85623877	     44.87434324	      0.00000000	      0.00000000
     20.83714286	     -5.47246006	     -5.60972599	      3.23622153	      1.12715715	      0.90710506	      0.46665431	     -5.10402335	      3.57595490	    -17.54420871	     12.19451689	     12.19451689	     20.95975388	      3.11240329	     -0.54392551	     33.95919646	     -6.79571574	     -1.96402149	     22.13751855	     22.13751855	     -0.68666225	    -13.80516771	      4.51760829	     -6.94463705	      4.94229383	      3.78888943	     57.90001118	    -14.22325374	     -4.01434235	     98.00901127	     44.41241645	      0.00000000	      0.00000000	    -23.86866199	     -5.83853093	      6.23111894	     21.17728499	     44.85549920	      0.00000000	      0.00000000
     20.84857143	     -5.38788772	     -5.41496934	      2.96603157	      1.12787371	      0.90687672	      0.46446828	     -5.11270124	      2.92625890	    -17.16516420	     13.70636138	     13.70636138	     21.15652613	      2.59843640	     -0.91175345	     33.76078146	     -6.62257934	     -1.93497373	     23.33681763	     23.33681763	     -0.64885812	    -14.40814542	      4.22740861	     -7.02356615	      4.76565178	      3.43303042	     57.59595539	    -13.69510759	     -3.81528430	     99.08106759	     44.38121792	      0.00000000	      0.00000000	    -23.84782290	     -5.59421363	      6.37664800	     20.97059328	     44.84171387	      0.00000000	      0.00000000
     20.86000000	     -5.32841142	     -5.17535923	      2.70222161	      1.12847814	      0.90704332	      0.46210907	     -4.90408640	      2.18503260	    -16.68274609	     15.52616602	     15.52616602	     21.10836675	      1.76257309	     -1.56008943	     33.51356527	     -6.37305859	     -1.87045735	     24.38850833	     24.38850833	     -0.34360046	    -15.00478920	      4.07830320	     -7.09070142	      4.54946363	      3.22811728	     56.75381206	    -13.42333903	     -3.68229555	    100.64624585	     44.33993794	      0.00000000	      0.00000000	    -23.53391825	     -5.43758754	      6.56052731	     20.72864998	     44.83322712	      0.00000000	      0.00000000
     20.87142857	     -4.93172313	     -5.04741856	      2.55522753	      1.12927003	      0.90817844	      0.45951586	     -5.25146193	      1.62189569	    -16.42625865	     16.94537579	     16.94537579	     20.83805386	      1.35418986	     -1.87822100	     32.84417454	     -6.20242154	     -1.72093786	     25.32102698	     25.32102698	      0.21999370	    -15.44769781	      3.81419497	     -7.46997902	      4.50384975	      2.91777303	     55.77381031	    -13.20701786	     -3.54099090	    101.07294073	     44.32158723	      0.00000000	      0.00000000	    -22.97276828	     -5.26661748	      6.63487029	     20.81689273	     44.83447441	      0.00000000	      0.00000000
     20.88285714	     -5.12672194	     -4.71751172	      2.28632341	      1.12930596	      0.90860100	      0.45688749	     -4.16020552	      0.63293379	    -15.71695446	     19.67780137	     19.67780137	     19.46737335	     -0.56079350	     -5.85245888	     32.83935686	     -5.81632198	     -1.76642510	     26.30056269	     26.30056269	      1.43428799	    -15.75269712	      5.21969827	     -7.41299812	      4.19468953	      3.68871637	     53.74233971	    -14.29614567	     -4.14604367	    105.32402222	     44.26767223	      0.00000000	      0.00000000	    -21.53200435	     -5.48638190	      7.40607261	     19.85590962	     44.79152579	      0.00000000	      0.00000000
     20.89428571	     -5.03365144	     -4.47999973	      2.09680653	      1.12951743	      0.90981404	      0.45399771	     -3.39105745	     -0.29601161	    -15.39724621	     22.45551716	     22.45551716	     18.72374307	     -1.55188046	     -7.04413079	     32.30196179	     -5.48945557	     -1.78262863	     26.85898036	     26.85898036	      2.28063018	    -16.04181219	      5.12165034	     -7.53605689	      4.10761473	      3.28249842	     52.48243075	    -13.98214600	     -3.90648315	    106.10482149	     44.24355039	      0.00000000	      0.00000000	    -20.73983980	     -5.33470638	      7.58790061	     20.02454515	     44.78308890	      0.00000000	      0.00000000
